<svg xmlns="http://www.w3.org/2000/svg" xmlns:xlink="http://www.w3.org/1999/xlink" contentStyleType="text/css" data-diagram-type="SEQUENCE" height="1750px" preserveAspectRatio="none" style="width:1842px;height:1750px;background:#FFFFFF;" version="1.1" viewBox="0 0 1842 1750" width="1842px" zoomAndPan="magnify"><title>NodoFlow &#183; SD-01
Aceptaci&#243;n y ejecuci&#243;n de una tarea</title><defs/><g><text fill="#000000" font-family="Arial" font-size="14" font-weight="bold" lengthAdjust="spacing" textLength="119.7725" x="860.4868" y="28.1318">NodoFlow &#183; SD-01</text><text fill="#000000" font-family="Arial" font-size="14" font-weight="bold" lengthAdjust="spacing" textLength="241.9717" x="799.3872" y="44.2305">Aceptaci&#243;n y ejecuci&#243;n de una tarea</text><g><title>Worker</title><rect fill="#FFFFFF" height="209.5898" style="stroke:#181818;stroke-width:1;" width="10" x="1802.1909" y="1100.4028"/></g><g><title>Usuario</title><rect fill="#000000" fill-opacity="0.00000" height="275.5386" width="8" x="28.1206" y="136.3945"/><line style="stroke:#181818;stroke-width:0.5;stroke-dasharray:5,5;" x1="32" x2="32" y1="136.3945" y2="411.9331"/></g><line style="stroke:#181818;stroke-width:0.5;stroke-dasharray:1,4;" x1="32" x2="32" y1="411.9331" y2="452.582"/><g><title>Usuario</title><rect fill="#000000" fill-opacity="0.00000" height="1046.0518" width="8" x="28.1206" y="452.582"/><line style="stroke:#181818;stroke-width:0.5;stroke-dasharray:5,5;" x1="32" x2="32" y1="452.582" y2="1498.6338"/></g><line style="stroke:#181818;stroke-width:0.5;stroke-dasharray:1,4;" x1="32" x2="32" y1="1498.6338" y2="1539.2827"/><g><title>Usuario</title><rect fill="#000000" fill-opacity="0.00000" height="204.6411" width="8" x="28.1206" y="1539.2827"/><line style="stroke:#181818;stroke-width:0.5;stroke-dasharray:5,5;" x1="32" x2="32" y1="1539.2827" y2="1743.9238"/></g><g><title>C-01</title><rect fill="#000000" fill-opacity="0.00000" height="275.5386" width="8" x="215.1104" y="136.3945"/><line style="stroke:#181818;stroke-width:0.5;stroke-dasharray:5,5;" x1="218.9829" x2="218.9829" y1="136.3945" y2="411.9331"/></g><line style="stroke:#181818;stroke-width:0.5;stroke-dasharray:1,4;" x1="218.9829" x2="218.9829" y1="411.9331" y2="452.582"/><g><title>C-01</title><rect fill="#000000" fill-opacity="0.00000" height="1046.0518" width="8" x="215.1104" y="452.582"/><line style="stroke:#181818;stroke-width:0.5;stroke-dasharray:5,5;" x1="218.9829" x2="218.9829" y1="452.582" y2="1498.6338"/></g><line style="stroke:#181818;stroke-width:0.5;stroke-dasharray:1,4;" x1="218.9829" x2="218.9829" y1="1498.6338" y2="1539.2827"/><g><title>C-01</title><rect fill="#000000" fill-opacity="0.00000" height="204.6411" width="8" x="215.1104" y="1539.2827"/><line style="stroke:#181818;stroke-width:0.5;stroke-dasharray:5,5;" x1="218.9829" x2="218.9829" y1="1539.2827" y2="1743.9238"/></g><g><title>C-02</title><rect fill="#000000" fill-opacity="0.00000" height="275.5386" width="8" x="495.6392" y="136.3945"/><line style="stroke:#181818;stroke-width:0.5;stroke-dasharray:5,5;" x1="499.4668" x2="499.4668" y1="136.3945" y2="411.9331"/></g><line style="stroke:#181818;stroke-width:0.5;stroke-dasharray:1,4;" x1="499.4668" x2="499.4668" y1="411.9331" y2="452.582"/><g><title>C-02</title><rect fill="#000000" fill-opacity="0.00000" height="1046.0518" width="8" x="495.6392" y="452.582"/><line style="stroke:#181818;stroke-width:0.5;stroke-dasharray:5,5;" x1="499.4668" x2="499.4668" y1="452.582" y2="1498.6338"/></g><line style="stroke:#181818;stroke-width:0.5;stroke-dasharray:1,4;" x1="499.4668" x2="499.4668" y1="1498.6338" y2="1539.2827"/><g><title>C-02</title><rect fill="#000000" fill-opacity="0.00000" height="204.6411" width="8" x="495.6392" y="1539.2827"/><line style="stroke:#181818;stroke-width:0.5;stroke-dasharray:5,5;" x1="499.4668" x2="499.4668" y1="1539.2827" y2="1743.9238"/></g><g><title>C-06</title><rect fill="#000000" fill-opacity="0.00000" height="275.5386" width="8" x="757.3599" y="136.3945"/><line style="stroke:#181818;stroke-width:0.5;stroke-dasharray:5,5;" x1="761.229" x2="761.229" y1="136.3945" y2="411.9331"/></g><line style="stroke:#181818;stroke-width:0.5;stroke-dasharray:1,4;" x1="761.229" x2="761.229" y1="411.9331" y2="452.582"/><g><title>C-06</title><rect fill="#000000" fill-opacity="0.00000" height="1046.0518" width="8" x="757.3599" y="452.582"/><line style="stroke:#181818;stroke-width:0.5;stroke-dasharray:5,5;" x1="761.229" x2="761.229" y1="452.582" y2="1498.6338"/></g><line style="stroke:#181818;stroke-width:0.5;stroke-dasharray:1,4;" x1="761.229" x2="761.229" y1="1498.6338" y2="1539.2827"/><g><title>C-06</title><rect fill="#000000" fill-opacity="0.00000" height="204.6411" width="8" x="757.3599" y="1539.2827"/><line style="stroke:#181818;stroke-width:0.5;stroke-dasharray:5,5;" x1="761.229" x2="761.229" y1="1539.2827" y2="1743.9238"/></g><g><title>Dispatcher</title><rect fill="#000000" fill-opacity="0.00000" height="275.5386" width="8" x="1034.7148" y="136.3945"/><line style="stroke:#181818;stroke-width:0.5;stroke-dasharray:5,5;" x1="1038.2563" x2="1038.2563" y1="136.3945" y2="411.9331"/></g><line style="stroke:#181818;stroke-width:0.5;stroke-dasharray:1,4;" x1="1038.2563" x2="1038.2563" y1="411.9331" y2="452.582"/><g><title>Dispatcher</title><rect fill="#000000" fill-opacity="0.00000" height="1046.0518" width="8" x="1034.7148" y="452.582"/><line style="stroke:#181818;stroke-width:0.5;stroke-dasharray:5,5;" x1="1038.2563" x2="1038.2563" y1="452.582" y2="1498.6338"/></g><line style="stroke:#181818;stroke-width:0.5;stroke-dasharray:1,4;" x1="1038.2563" x2="1038.2563" y1="1498.6338" y2="1539.2827"/><g><title>Dispatcher</title><rect fill="#000000" fill-opacity="0.00000" height="204.6411" width="8" x="1034.7148" y="1539.2827"/><line style="stroke:#181818;stroke-width:0.5;stroke-dasharray:5,5;" x1="1038.2563" x2="1038.2563" y1="1539.2827" y2="1743.9238"/></g><g><title>C-04</title><rect fill="#000000" fill-opacity="0.00000" height="275.5386" width="8" x="1269.4009" y="136.3945"/><line style="stroke:#181818;stroke-width:0.5;stroke-dasharray:5,5;" x1="1272.8906" x2="1272.8906" y1="136.3945" y2="411.9331"/></g><line style="stroke:#181818;stroke-width:0.5;stroke-dasharray:1,4;" x1="1272.8906" x2="1272.8906" y1="411.9331" y2="452.582"/><g><title>C-04</title><rect fill="#000000" fill-opacity="0.00000" height="1046.0518" width="8" x="1269.4009" y="452.582"/><line style="stroke:#181818;stroke-width:0.5;stroke-dasharray:5,5;" x1="1272.8906" x2="1272.8906" y1="452.582" y2="1498.6338"/></g><line style="stroke:#181818;stroke-width:0.5;stroke-dasharray:1,4;" x1="1272.8906" x2="1272.8906" y1="1498.6338" y2="1539.2827"/><g><title>C-04</title><rect fill="#000000" fill-opacity="0.00000" height="204.6411" width="8" x="1269.4009" y="1539.2827"/><line style="stroke:#181818;stroke-width:0.5;stroke-dasharray:5,5;" x1="1272.8906" x2="1272.8906" y1="1539.2827" y2="1743.9238"/></g><g><title>C-03</title><rect fill="#000000" fill-opacity="0.00000" height="275.5386" width="8" x="1423.8906" y="136.3945"/><line style="stroke:#181818;stroke-width:0.5;stroke-dasharray:5,5;" x1="1427.3667" x2="1427.3667" y1="136.3945" y2="411.9331"/></g><line style="stroke:#181818;stroke-width:0.5;stroke-dasharray:1,4;" x1="1427.3667" x2="1427.3667" y1="411.9331" y2="452.582"/><g><title>C-03</title><rect fill="#000000" fill-opacity="0.00000" height="1046.0518" width="8" x="1423.8906" y="452.582"/><line style="stroke:#181818;stroke-width:0.5;stroke-dasharray:5,5;" x1="1427.3667" x2="1427.3667" y1="452.582" y2="1498.6338"/></g><line style="stroke:#181818;stroke-width:0.5;stroke-dasharray:1,4;" x1="1427.3667" x2="1427.3667" y1="1498.6338" y2="1539.2827"/><g><title>C-03</title><rect fill="#000000" fill-opacity="0.00000" height="204.6411" width="8" x="1423.8906" y="1539.2827"/><line style="stroke:#181818;stroke-width:0.5;stroke-dasharray:5,5;" x1="1427.3667" x2="1427.3667" y1="1539.2827" y2="1743.9238"/></g><g><title>C-05</title><rect fill="#000000" fill-opacity="0.00000" height="275.5386" width="8" x="1603.064" y="136.3945"/><line style="stroke:#181818;stroke-width:0.5;stroke-dasharray:5,5;" x1="1606.7158" x2="1606.7158" y1="136.3945" y2="411.9331"/></g><line style="stroke:#181818;stroke-width:0.5;stroke-dasharray:1,4;" x1="1606.7158" x2="1606.7158" y1="411.9331" y2="452.582"/><g><title>C-05</title><rect fill="#000000" fill-opacity="0.00000" height="1046.0518" width="8" x="1603.064" y="452.582"/><line style="stroke:#181818;stroke-width:0.5;stroke-dasharray:5,5;" x1="1606.7158" x2="1606.7158" y1="452.582" y2="1498.6338"/></g><line style="stroke:#181818;stroke-width:0.5;stroke-dasharray:1,4;" x1="1606.7158" x2="1606.7158" y1="1498.6338" y2="1539.2827"/><g><title>C-05</title><rect fill="#000000" fill-opacity="0.00000" height="204.6411" width="8" x="1603.064" y="1539.2827"/><line style="stroke:#181818;stroke-width:0.5;stroke-dasharray:5,5;" x1="1606.7158" x2="1606.7158" y1="1539.2827" y2="1743.9238"/></g><g><title>Worker</title><rect fill="#000000" fill-opacity="0.00000" height="275.5386" width="8" x="1803.1909" y="136.3945"/><line style="stroke:#181818;stroke-width:0.5;stroke-dasharray:5,5;" x1="1806.6357" x2="1806.6357" y1="136.3945" y2="411.9331"/></g><line style="stroke:#181818;stroke-width:0.5;stroke-dasharray:1,4;" x1="1806.6357" x2="1806.6357" y1="411.9331" y2="452.582"/><g><title>Worker</title><rect fill="#000000" fill-opacity="0.00000" height="1046.0518" width="8" x="1803.1909" y="452.582"/><line style="stroke:#181818;stroke-width:0.5;stroke-dasharray:5,5;" x1="1806.6357" x2="1806.6357" y1="452.582" y2="1498.6338"/></g><line style="stroke:#181818;stroke-width:0.5;stroke-dasharray:1,4;" x1="1806.6357" x2="1806.6357" y1="1498.6338" y2="1539.2827"/><g><title>Worker</title><rect fill="#000000" fill-opacity="0.00000" height="204.6411" width="8" x="1803.1909" y="1539.2827"/><line style="stroke:#181818;stroke-width:0.5;stroke-dasharray:5,5;" x1="1806.6357" x2="1806.6357" y1="1539.2827" y2="1743.9238"/></g><g class="participant participant-head" data-participant="U"><text fill="#000000" font-family="Arial" font-size="14" lengthAdjust="spacing" textLength="48.2412" x="5" y="133.4277">Usuario</text><ellipse cx="32.1206" cy="68.7959" fill="#E2E2F0" rx="8" ry="8" style="stroke:#181818;stroke-width:0.5;"/><path d="M32.1206,76.7959 L32.1206,103.7959 M19.1206,84.7959 L45.1206,84.7959 M32.1206,103.7959 L19.1206,118.7959 M32.1206,103.7959 L45.1206,118.7959" fill="none" style="stroke:#181818;stroke-width:0.5;"/></g><g class="participant participant-head" data-participant="UI"><rect fill="#E2E2F0" height="46.1973" rx="2.5" ry="2.5" style="stroke:#181818;stroke-width:0.5;" width="62.2549" x="187.9829" y="89.1973"/><text fill="#000000" font-family="Arial" font-size="14" lengthAdjust="spacing" textLength="30.3447" x="203.938" y="109.3291">C-01</text><text fill="#000000" font-family="Arial" font-size="14" lengthAdjust="spacing" textLength="48.2549" x="194.9829" y="125.4277">Angular</text></g><g class="participant participant-head" data-participant="API"><rect fill="#E2E2F0" height="46.1973" rx="2.5" ry="2.5" style="stroke:#181818;stroke-width:0.5;" width="44.3447" x="477.4668" y="89.1973"/><text fill="#000000" font-family="Arial" font-size="14" lengthAdjust="spacing" textLength="30.3447" x="484.4668" y="109.3291">C-02</text><text fill="#000000" font-family="Arial" font-size="14" lengthAdjust="spacing" textLength="22.5654" x="488.3564" y="125.4277">API</text></g><g class="participant participant-head" data-participant="DB"><text fill="#000000" font-family="Arial" font-size="14" lengthAdjust="spacing" textLength="30.3447" x="743.1875" y="117.3291">C-06</text><text fill="#000000" font-family="Arial" font-size="14" lengthAdjust="spacing" textLength="76.2617" x="720.229" y="133.4277">PostgreSQL</text><path d="M743.3599,68.1973 C743.3599,58.1973 761.3599,58.1973 761.3599,58.1973 C761.3599,58.1973 779.3599,58.1973 779.3599,68.1973 L779.3599,94.1973 C779.3599,104.1973 761.3599,104.1973 761.3599,104.1973 C761.3599,104.1973 743.3599,104.1973 743.3599,94.1973 L743.3599,68.1973" fill="#E2E2F0" style="stroke:#181818;stroke-width:0.5;"/><path d="M743.3599,68.1973 C743.3599,78.1973 761.3599,78.1973 761.3599,78.1973 C761.3599,78.1973 779.3599,78.1973 779.3599,68.1973" fill="none" style="stroke:#181818;stroke-width:0.5;"/></g><g class="participant participant-head" data-participant="O"><rect fill="#E2E2F0" height="46.1973" rx="2.5" ry="2.5" style="stroke:#181818;stroke-width:0.5;" width="80.917" x="998.2563" y="89.1973"/><text fill="#000000" font-family="Arial" font-size="14" lengthAdjust="spacing" textLength="66.917" x="1005.2563" y="109.3291">Dispatcher</text><text fill="#000000" font-family="Arial" font-size="14" lengthAdjust="spacing" textLength="45.1377" x="1016.146" y="125.4277">Outbox</text></g><g class="participant participant-head" data-participant="MQ"><path d="M1236.8906,94.1973 L1309.9111,94.1973 C1314.9111,94.1973 1314.9111,115.2959 1314.9111,115.2959 C1314.9111,115.2959 1314.9111,136.3945 1309.9111,136.3945 L1236.8906,136.3945 C1231.8906,136.3945 1231.8906,115.2959 1231.8906,115.2959 C1231.8906,115.2959 1231.8906,94.1973 1236.8906,94.1973" fill="#E2E2F0" style="stroke:#181818;stroke-width:0.5;"/><path d="M1309.9111,94.1973 C1304.9111,94.1973 1304.9111,115.2959 1304.9111,115.2959 C1304.9111,136.3945 1309.9111,136.3945 1309.9111,136.3945" fill="none" style="stroke:#181818;stroke-width:0.5;"/><text fill="#000000" font-family="Arial" font-size="14" lengthAdjust="spacing" textLength="30.3447" x="1253.2285" y="112.3291">C-04</text><text fill="#000000" font-family="Arial" font-size="14" lengthAdjust="spacing" textLength="63.0205" x="1236.8906" y="128.4277">RabbitMQ</text></g><g class="participant participant-head" data-participant="C"><rect fill="#E2E2F0" height="46.1973" rx="2.5" ry="2.5" style="stroke:#181818;stroke-width:0.5;" width="91.0479" x="1382.3667" y="89.1973"/><text fill="#000000" font-family="Arial" font-size="14" lengthAdjust="spacing" textLength="30.3447" x="1412.7183" y="109.3291">C-03</text><text fill="#000000" font-family="Arial" font-size="14" lengthAdjust="spacing" textLength="77.0479" x="1389.3667" y="125.4277">Coordinador</text></g><g class="participant participant-head" data-participant="N"><rect fill="#E2E2F0" height="46.1973" rx="2.5" ry="2.5" style="stroke:#181818;stroke-width:0.5;" width="60.6963" x="1576.7158" y="89.1973"/><text fill="#000000" font-family="Arial" font-size="14" lengthAdjust="spacing" textLength="30.3447" x="1591.8916" y="109.3291">C-05</text><text fill="#000000" font-family="Arial" font-size="14" lengthAdjust="spacing" textLength="46.6963" x="1583.7158" y="125.4277">Nodo A</text></g><g class="participant participant-head" data-participant="W"><rect fill="#E2E2F0" height="46.1973" rx="2.5" ry="2.5" style="stroke:#181818;stroke-width:0.5;" width="59.1104" x="1777.6357" y="89.1973"/><text fill="#000000" font-family="Arial" font-size="14" lengthAdjust="spacing" textLength="45.1104" x="1784.6357" y="109.3291">Worker</text><text fill="#000000" font-family="Arial" font-size="14" lengthAdjust="spacing" textLength="42.8066" x="1785.7876" y="125.4277">interno</text></g><g><title>Worker</title><rect fill="#FFFFFF" height="209.5898" style="stroke:#181818;stroke-width:1;" width="10" x="1802.1909" y="1100.4028"/></g><g class="message" data-participant-1="U" data-participant-2="UI"><polygon fill="#181818" points="207.1104,163.3433,217.1104,167.3433,207.1104,171.3433,211.1104,167.3433" style="stroke:#181818;stroke-width:1;"/><line style="stroke:#181818;stroke-width:1;" x1="32.1206" x2="213.1104" y1="167.3433" y2="167.3433"/><text fill="#000000" font-family="Arial" font-size="13" font-weight="bold" lengthAdjust="spacing" textLength="7.23" x="88.5701" y="162.5884">1</text><text fill="#000000" font-family="Arial" font-size="13" lengthAdjust="spacing" textLength="62.8608" x="99.8" y="162.5884">crear tarea</text></g><g class="message" data-participant-1="UI" data-participant-2="API"><polygon fill="#181818" points="487.6392,192.292,497.6392,196.292,487.6392,200.292,491.6392,196.292" style="stroke:#181818;stroke-width:1;"/><line style="stroke:#181818;stroke-width:1;" x1="219.1104" x2="493.6392" y1="196.292" y2="196.292"/><text fill="#000000" font-family="Arial" font-size="13" font-weight="bold" lengthAdjust="spacing" textLength="7.23" x="231.1104" y="191.5371">2</text><text fill="#000000" font-family="Arial" font-size="13" lengthAdjust="spacing" textLength="245.2988" x="242.3403" y="191.5371">HTTP/JSON &#183; payload + idempotency_key</text></g><g class="message" data-participant-1="API" data-participant-2="API"><line style="stroke:#181818;stroke-width:1;" x1="499.6392" x2="541.6392" y1="225.2407" y2="225.2407"/><line style="stroke:#181818;stroke-width:1;" x1="541.6392" x2="541.6392" y1="225.2407" y2="238.2407"/><line style="stroke:#181818;stroke-width:1;" x1="500.6392" x2="541.6392" y1="238.2407" y2="238.2407"/><polygon fill="#181818" points="510.6392,234.2407,500.6392,238.2407,510.6392,242.2407,506.6392,238.2407" style="stroke:#181818;stroke-width:1;"/><text fill="#000000" font-family="Arial" font-size="13" font-weight="bold" lengthAdjust="spacing" textLength="7.23" x="506.6392" y="220.4858">3</text><text fill="#000000" font-family="Arial" font-size="13" lengthAdjust="spacing" textLength="177.7788" x="517.8691" y="220.4858">validar entrada e idempotencia</text></g><g class="message" data-participant-1="API" data-participant-2="DB"><polygon fill="#181818" points="749.3599,263.1895,759.3599,267.1895,749.3599,271.1895,753.3599,267.1895" style="stroke:#181818;stroke-width:1;"/><line style="stroke:#181818;stroke-width:1;" x1="499.6392" x2="755.3599" y1="267.1895" y2="267.1895"/><text fill="#000000" font-family="Arial" font-size="13" font-weight="bold" lengthAdjust="spacing" textLength="7.23" x="511.6392" y="262.4346">4</text><text fill="#000000" font-family="Arial" font-size="13" lengthAdjust="spacing" textLength="226.4907" x="522.8691" y="262.4346">transacci&#243;n: Task(PENDING) + Outbox</text></g><g class="message" data-participant-1="DB" data-participant-2="API"><polygon fill="#181818" points="510.6392,292.1382,500.6392,296.1382,510.6392,300.1382,506.6392,296.1382" style="stroke:#181818;stroke-width:1;"/><line style="stroke:#181818;stroke-width:1;stroke-dasharray:2,2;" x1="504.6392" x2="760.3599" y1="296.1382" y2="296.1382"/><text fill="#000000" font-family="Arial" font-size="13" font-weight="bold" lengthAdjust="spacing" textLength="7.23" x="577.5691" y="291.3833">5</text><text fill="#000000" font-family="Arial" font-size="13" lengthAdjust="spacing" textLength="94.6309" x="588.7991" y="291.3833">commit &#183; task_id</text></g><g class="message" data-participant-1="API" data-participant-2="UI"><polygon fill="#181818" points="230.1104,321.0869,220.1104,325.0869,230.1104,329.0869,226.1104,325.0869" style="stroke:#181818;stroke-width:1;"/><line style="stroke:#181818;stroke-width:1;stroke-dasharray:2,2;" x1="224.1104" x2="498.6392" y1="325.0869" y2="325.0869"/><text fill="#000000" font-family="Arial" font-size="13" font-weight="bold" lengthAdjust="spacing" textLength="7.23" x="265.2512" y="320.332">6</text><text fill="#000000" font-family="Arial" font-size="13" lengthAdjust="spacing" textLength="177.0171" x="276.4812" y="320.332">aceptada &#183; task_id &#183; PENDING</text></g><g class="message" data-participant-1="UI" data-participant-2="U"><polygon fill="#181818" points="43.1206,350.0356,33.1206,354.0356,43.1206,358.0356,39.1206,354.0356" style="stroke:#181818;stroke-width:1;"/><line style="stroke:#181818;stroke-width:1;stroke-dasharray:2,2;" x1="37.1206" x2="218.1104" y1="354.0356" y2="354.0356"/><text fill="#000000" font-family="Arial" font-size="13" font-weight="bold" lengthAdjust="spacing" textLength="7.23" x="44.1206" y="349.2808">7</text><text fill="#000000" font-family="Arial" font-size="13" lengthAdjust="spacing" textLength="151.7598" x="55.3506" y="349.2808">identificador para consulta</text></g><path d="M470,367.0356 L470,406.0356 L790,406.0356 L790,377.0356 L780,367.0356 L470,367.0356" fill="#FEFFDD" style="stroke:#181818;stroke-width:0.5;"/><path d="M780,367.0356 L780,377.0356 L790,377.0356 L780,367.0356" fill="#FEFFDD" style="stroke:#181818;stroke-width:0.5;"/><text fill="#000000" font-family="Arial" font-size="13" lengthAdjust="spacing" textLength="228.3506" x="511.3367" y="384.2295">La aceptaci&#243;n requiere commit durable.</text><text fill="#000000" font-family="Arial" font-size="13" lengthAdjust="spacing" textLength="198.688" x="511.3367" y="399.1782">La misma clave no crea otra Task.</text><text fill="#000000" font-family="Arial" font-size="11" lengthAdjust="spacing" textLength="137.5913" x="850.8601" y="436.251">procesamiento desacoplado</text><g class="message" data-participant-1="O" data-participant-2="DB"><polygon fill="#181818" points="772.3599,469.5308,762.3599,473.5308,772.3599,477.5308,768.3599,473.5308" style="stroke:#181818;stroke-width:1;"/><line style="stroke:#181818;stroke-width:1;" x1="766.3599" x2="1037.7148" y1="473.5308" y2="473.5308"/><text fill="#000000" font-family="Arial" font-size="13" font-weight="bold" lengthAdjust="spacing" textLength="7.23" x="791.4443" y="468.7759">8</text><text fill="#000000" font-family="Arial" font-size="13" lengthAdjust="spacing" textLength="205.9561" x="802.6743" y="468.7759">leer Outbox confirmado y pendiente</text></g><g class="message" data-participant-1="DB" data-participant-2="O"><polygon fill="#181818" points="1026.7148,498.4795,1036.7148,502.4795,1026.7148,506.4795,1030.7148,502.4795" style="stroke:#181818;stroke-width:1;"/><line style="stroke:#181818;stroke-width:1;stroke-dasharray:2,2;" x1="761.3599" x2="1032.7148" y1="502.4795" y2="502.4795"/><text fill="#000000" font-family="Arial" font-size="13" font-weight="bold" lengthAdjust="spacing" textLength="7.23" x="855.3938" y="497.7246">9</text><text fill="#000000" font-family="Arial" font-size="13" lengthAdjust="spacing" textLength="78.0571" x="866.6238" y="497.7246">se&#241;al durable</text></g><g class="message" data-participant-1="O" data-participant-2="MQ"><line style="stroke:#181818;stroke-width:1;" x1="1271.4009" x2="1261.4009" y1="531.4282" y2="527.4282"/><line style="stroke:#181818;stroke-width:1;" x1="1271.4009" x2="1261.4009" y1="531.4282" y2="535.4282"/><line style="stroke:#181818;stroke-width:1;" x1="1038.7148" x2="1272.4009" y1="531.4282" y2="531.4282"/><text fill="#000000" font-family="Arial" font-size="13" font-weight="bold" lengthAdjust="spacing" textLength="14.46" x="1081.8025" y="526.6733">10</text><text fill="#000000" font-family="Arial" font-size="13" lengthAdjust="spacing" textLength="130.0508" x="1100.2625" y="526.6733">AMQP &#183; publicar se&#241;al</text></g><g class="message" data-participant-1="MQ" data-participant-2="O"><line style="stroke:#181818;stroke-width:1;" x1="1039.7148" x2="1049.7148" y1="560.377" y2="556.377"/><line style="stroke:#181818;stroke-width:1;" x1="1039.7148" x2="1049.7148" y1="560.377" y2="564.377"/><line style="stroke:#181818;stroke-width:1;stroke-dasharray:2,2;" x1="1038.7148" x2="1272.4009" y1="560.377" y2="560.377"/><text fill="#000000" font-family="Arial" font-size="13" font-weight="bold" lengthAdjust="spacing" textLength="14.46" x="1066.6157" y="555.6221">11</text><text fill="#000000" font-family="Arial" font-size="13" lengthAdjust="spacing" textLength="160.4243" x="1085.0757" y="555.6221">confirmaci&#243;n de publicaci&#243;n</text></g><g class="message" data-participant-1="O" data-participant-2="DB"><polygon fill="#181818" points="772.3599,585.3257,762.3599,589.3257,772.3599,593.3257,768.3599,589.3257" style="stroke:#181818;stroke-width:1;"/><line style="stroke:#181818;stroke-width:1;" x1="766.3599" x2="1037.7148" y1="589.3257" y2="589.3257"/><text fill="#000000" font-family="Arial" font-size="13" font-weight="bold" lengthAdjust="spacing" textLength="14.46" x="802.2957" y="584.5708">12</text><text fill="#000000" font-family="Arial" font-size="13" lengthAdjust="spacing" textLength="177.0234" x="820.7556" y="584.5708">marcar publicaci&#243;n confirmada</text></g><path d="M1000,602.3257 L1000,641.3257 L1311,641.3257 L1311,612.3257 L1301,602.3257 L1000,602.3257" fill="#FEFFDD" style="stroke:#181818;stroke-width:0.5;"/><path d="M1301,602.3257 L1301,612.3257 L1311,612.3257 L1301,602.3257" fill="#FEFFDD" style="stroke:#181818;stroke-width:0.5;"/><text fill="#000000" font-family="Arial" font-size="13" lengthAdjust="spacing" textLength="244.2451" x="1016.5667" y="619.5195">Si falla antes de marcar, puede republicar.</text><text fill="#000000" font-family="Arial" font-size="13" lengthAdjust="spacing" textLength="269.5215" x="1016.5667" y="634.4683">Consumidores idempotentes; sin exactly-once.</text><g class="message" data-participant-1="MQ" data-participant-2="C"><line style="stroke:#181818;stroke-width:1;" x1="1425.8906" x2="1415.8906" y1="668.1719" y2="664.1719"/><line style="stroke:#181818;stroke-width:1;" x1="1425.8906" x2="1415.8906" y1="668.1719" y2="672.1719"/><line style="stroke:#181818;stroke-width:1;" x1="1273.4009" x2="1426.8906" y1="668.1719" y2="668.1719"/><text fill="#000000" font-family="Arial" font-size="13" font-weight="bold" lengthAdjust="spacing" textLength="14.46" x="1297.3281" y="663.417">13</text><text fill="#000000" font-family="Arial" font-size="13" lengthAdjust="spacing" textLength="88.1753" x="1315.7881" y="663.417">trabajo elegible</text></g><g class="message" data-participant-1="C" data-participant-2="DB"><polygon fill="#181818" points="772.3599,693.1206,762.3599,697.1206,772.3599,701.1206,768.3599,697.1206" style="stroke:#181818;stroke-width:1;"/><line style="stroke:#181818;stroke-width:1;" x1="766.3599" x2="1426.8906" y1="697.1206" y2="697.1206"/><text fill="#000000" font-family="Arial" font-size="13" font-weight="bold" lengthAdjust="spacing" textLength="14.46" x="999.0417" y="692.3657">14</text><text fill="#000000" font-family="Arial" font-size="13" lengthAdjust="spacing" textLength="172.707" x="1017.5017" y="692.3657">leer Task y nodos / capacidad</text></g><g class="message" data-participant-1="DB" data-participant-2="C"><polygon fill="#181818" points="1415.8906,722.0693,1425.8906,726.0693,1415.8906,730.0693,1419.8906,726.0693" style="stroke:#181818;stroke-width:1;"/><line style="stroke:#181818;stroke-width:1;stroke-dasharray:2,2;" x1="761.3599" x2="1421.8906" y1="726.0693" y2="726.0693"/><text fill="#000000" font-family="Arial" font-size="13" font-weight="bold" lengthAdjust="spacing" textLength="14.46" x="1032.2781" y="721.3145">15</text><text fill="#000000" font-family="Arial" font-size="13" lengthAdjust="spacing" textLength="106.2344" x="1050.738" y="721.3145">estado autoritativo</text></g><g class="message" data-participant-1="C" data-participant-2="C"><line style="stroke:#181818;stroke-width:1;" x1="1427.8906" x2="1469.8906" y1="755.0181" y2="755.0181"/><line style="stroke:#181818;stroke-width:1;" x1="1469.8906" x2="1469.8906" y1="755.0181" y2="768.0181"/><line style="stroke:#181818;stroke-width:1;" x1="1428.8906" x2="1469.8906" y1="768.0181" y2="768.0181"/><polygon fill="#181818" points="1438.8906,764.0181,1428.8906,768.0181,1438.8906,772.0181,1434.8906,768.0181" style="stroke:#181818;stroke-width:1;"/><text fill="#000000" font-family="Arial" font-size="13" font-weight="bold" lengthAdjust="spacing" textLength="14.46" x="1434.8906" y="750.2632">16</text><text fill="#000000" font-family="Arial" font-size="13" lengthAdjust="spacing" textLength="146.7134" x="1453.3506" y="750.2632">seleccionar nodo elegible</text></g><g class="message" data-participant-1="C" data-participant-2="DB"><polygon fill="#181818" points="772.3599,822.8643,762.3599,826.8643,772.3599,830.8643,768.3599,826.8643" style="stroke:#181818;stroke-width:1;"/><line style="stroke:#181818;stroke-width:1;" x1="766.3599" x2="1426.8906" y1="826.8643" y2="826.8643"/><text fill="#000000" font-family="Arial" font-size="13" font-weight="bold" lengthAdjust="spacing" textLength="14.46" x="971.6199" y="807.1606">17</text><text fill="#000000" font-family="Arial" font-size="13" lengthAdjust="spacing" textLength="177.0488" x="1015.3308" y="792.2119">crear intento condicionalmente</text><text fill="#000000" font-family="Arial" font-size="13" lengthAdjust="spacing" textLength="227.5508" x="990.0798" y="807.1606">Task=RUNNING &#183; Attempt=ASSIGNED</text><text fill="#000000" font-family="Arial" font-size="13" lengthAdjust="spacing" textLength="188.2588" x="1009.7258" y="822.1094">+ registro durable de publicaci&#243;n</text></g><g class="message" data-participant-1="DB" data-participant-2="C"><polygon fill="#181818" points="1415.8906,851.813,1425.8906,855.813,1415.8906,859.813,1419.8906,855.813" style="stroke:#181818;stroke-width:1;"/><line style="stroke:#181818;stroke-width:1;stroke-dasharray:2,2;" x1="761.3599" x2="1421.8906" y1="855.813" y2="855.813"/><text fill="#000000" font-family="Arial" font-size="13" font-weight="bold" lengthAdjust="spacing" textLength="14.46" x="973.759" y="851.0581">18</text><text fill="#000000" font-family="Arial" font-size="13" lengthAdjust="spacing" textLength="223.2725" x="992.219" y="851.0581">commit &#183; task_id / attempt_id / node_id</text></g><g class="message" data-participant-1="O" data-participant-2="DB"><polygon fill="#181818" points="772.3599,880.7617,762.3599,884.7617,772.3599,888.7617,768.3599,884.7617" style="stroke:#181818;stroke-width:1;"/><line style="stroke:#181818;stroke-width:1;" x1="766.3599" x2="1037.7148" y1="884.7617" y2="884.7617"/><text fill="#000000" font-family="Arial" font-size="13" font-weight="bold" lengthAdjust="spacing" textLength="14.46" x="773.3599" y="880.0068">19</text><text fill="#000000" font-family="Arial" font-size="13" lengthAdjust="spacing" textLength="234.895" x="791.8198" y="880.0068">leer asignaci&#243;n pendiente de publicaci&#243;n</text></g><g class="message" data-participant-1="DB" data-participant-2="O"><polygon fill="#181818" points="1026.7148,909.7104,1036.7148,913.7104,1026.7148,917.7104,1030.7148,913.7104" style="stroke:#181818;stroke-width:1;"/><line style="stroke:#181818;stroke-width:1;stroke-dasharray:2,2;" x1="761.3599" x2="1032.7148" y1="913.7104" y2="913.7104"/><text fill="#000000" font-family="Arial" font-size="13" font-weight="bold" lengthAdjust="spacing" textLength="14.46" x="836.2397" y="908.9556">20</text><text fill="#000000" font-family="Arial" font-size="13" lengthAdjust="spacing" textLength="109.1353" x="854.6997" y="908.9556">asignaci&#243;n durable</text></g><g class="message" data-participant-1="O" data-participant-2="MQ"><line style="stroke:#181818;stroke-width:1;" x1="1271.4009" x2="1261.4009" y1="942.6592" y2="938.6592"/><line style="stroke:#181818;stroke-width:1;" x1="1271.4009" x2="1261.4009" y1="942.6592" y2="946.6592"/><line style="stroke:#181818;stroke-width:1;" x1="1038.7148" x2="1272.4009" y1="942.6592" y2="942.6592"/><text fill="#000000" font-family="Arial" font-size="13" font-weight="bold" lengthAdjust="spacing" textLength="14.46" x="1050.7148" y="937.9043">21</text><text fill="#000000" font-family="Arial" font-size="13" lengthAdjust="spacing" textLength="192.2261" x="1069.1748" y="937.9043">publicar trabajo dirigido a Nodo A</text></g><g class="message" data-participant-1="MQ" data-participant-2="O"><line style="stroke:#181818;stroke-width:1;" x1="1039.7148" x2="1049.7148" y1="971.6079" y2="967.6079"/><line style="stroke:#181818;stroke-width:1;" x1="1039.7148" x2="1049.7148" y1="971.6079" y2="975.6079"/><line style="stroke:#181818;stroke-width:1;stroke-dasharray:2,2;" x1="1038.7148" x2="1272.4009" y1="971.6079" y2="971.6079"/><text fill="#000000" font-family="Arial" font-size="13" font-weight="bold" lengthAdjust="spacing" textLength="14.46" x="1109.9797" y="966.853">22</text><text fill="#000000" font-family="Arial" font-size="13" lengthAdjust="spacing" textLength="73.6963" x="1128.4397" y="966.853">confirmaci&#243;n</text></g><g class="message" data-participant-1="O" data-participant-2="DB"><polygon fill="#181818" points="772.3599,996.5566,762.3599,1000.5566,772.3599,1004.5566,768.3599,1000.5566" style="stroke:#181818;stroke-width:1;"/><line style="stroke:#181818;stroke-width:1;" x1="766.3599" x2="1037.7148" y1="1000.5566" y2="1000.5566"/><text fill="#000000" font-family="Arial" font-size="13" font-weight="bold" lengthAdjust="spacing" textLength="14.46" x="802.2957" y="995.8018">23</text><text fill="#000000" font-family="Arial" font-size="13" lengthAdjust="spacing" textLength="177.0234" x="820.7556" y="995.8018">marcar publicaci&#243;n confirmada</text></g><g class="message" data-participant-1="MQ" data-participant-2="N"><line style="stroke:#181818;stroke-width:1;" x1="1605.064" x2="1595.064" y1="1029.5054" y2="1025.5054"/><line style="stroke:#181818;stroke-width:1;" x1="1605.064" x2="1595.064" y1="1029.5054" y2="1033.5054"/><line style="stroke:#181818;stroke-width:1;" x1="1273.4009" x2="1606.064" y1="1029.5054" y2="1029.5054"/><text fill="#000000" font-family="Arial" font-size="13" font-weight="bold" lengthAdjust="spacing" textLength="14.46" x="1314.2913" y="1024.7505">24</text><text fill="#000000" font-family="Arial" font-size="13" lengthAdjust="spacing" textLength="233.4224" x="1332.7512" y="1024.7505">asignaci&#243;n(task_id, attempt_id, node_id)</text></g><g class="message" data-participant-1="N" data-participant-2="N"><line style="stroke:#181818;stroke-width:1;" x1="1607.064" x2="1649.064" y1="1058.4541" y2="1058.4541"/><line style="stroke:#181818;stroke-width:1;" x1="1649.064" x2="1649.064" y1="1058.4541" y2="1071.4541"/><line style="stroke:#181818;stroke-width:1;" x1="1608.064" x2="1649.064" y1="1071.4541" y2="1071.4541"/><polygon fill="#181818" points="1618.064,1067.4541,1608.064,1071.4541,1618.064,1075.4541,1614.064,1071.4541" style="stroke:#181818;stroke-width:1;"/><text fill="#000000" font-family="Arial" font-size="13" font-weight="bold" lengthAdjust="spacing" textLength="14.46" x="1614.064" y="1053.6992">25</text><text fill="#000000" font-family="Arial" font-size="13" lengthAdjust="spacing" textLength="167.667" x="1632.5239" y="1053.6992">validar duplicado / capacidad</text></g><g class="message" data-participant-1="N" data-participant-2="W"><polygon fill="#181818" points="1790.1909,1096.4028,1800.1909,1100.4028,1790.1909,1104.4028,1794.1909,1100.4028" style="stroke:#181818;stroke-width:1;"/><line style="stroke:#181818;stroke-width:1;" x1="1607.064" x2="1796.1909" y1="1100.4028" y2="1100.4028"/><text fill="#000000" font-family="Arial" font-size="13" font-weight="bold" lengthAdjust="spacing" textLength="14.46" x="1650.9512" y="1095.6479">26</text><text fill="#000000" font-family="Arial" font-size="13" lengthAdjust="spacing" textLength="88.8926" x="1669.4111" y="1095.6479">ejecutar intento</text></g><g class="message" data-participant-1="N" data-participant-2="MQ"><line style="stroke:#181818;stroke-width:1;" x1="1274.4009" x2="1284.4009" y1="1129.3516" y2="1125.3516"/><line style="stroke:#181818;stroke-width:1;" x1="1274.4009" x2="1284.4009" y1="1129.3516" y2="1133.3516"/><line style="stroke:#181818;stroke-width:1;" x1="1273.4009" x2="1606.064" y1="1129.3516" y2="1129.3516"/><text fill="#000000" font-family="Arial" font-size="13" font-weight="bold" lengthAdjust="spacing" textLength="14.46" x="1387.6479" y="1124.5967">27</text><text fill="#000000" font-family="Arial" font-size="13" lengthAdjust="spacing" textLength="86.709" x="1406.1079" y="1124.5967">AttemptStarted</text></g><g class="message" data-participant-1="MQ" data-participant-2="C"><line style="stroke:#181818;stroke-width:1;" x1="1425.8906" x2="1415.8906" y1="1158.3003" y2="1154.3003"/><line style="stroke:#181818;stroke-width:1;" x1="1425.8906" x2="1415.8906" y1="1158.3003" y2="1162.3003"/><line style="stroke:#181818;stroke-width:1;" x1="1273.4009" x2="1426.8906" y1="1158.3003" y2="1158.3003"/><text fill="#000000" font-family="Arial" font-size="13" font-weight="bold" lengthAdjust="spacing" textLength="14.46" x="1298.0613" y="1153.5454">28</text><text fill="#000000" font-family="Arial" font-size="13" lengthAdjust="spacing" textLength="86.709" x="1316.5212" y="1153.5454">AttemptStarted</text></g><g class="message" data-participant-1="C" data-participant-2="DB"><polygon fill="#181818" points="772.3599,1183.249,762.3599,1187.249,772.3599,1191.249,768.3599,1187.249" style="stroke:#181818;stroke-width:1;"/><line style="stroke:#181818;stroke-width:1;" x1="766.3599" x2="1426.8906" y1="1187.249" y2="1187.249"/><text fill="#000000" font-family="Arial" font-size="13" font-weight="bold" lengthAdjust="spacing" textLength="14.46" x="947.4067" y="1182.4941">29</text><text fill="#000000" font-family="Arial" font-size="13" lengthAdjust="spacing" textLength="275.9771" x="965.8667" y="1182.4941">transici&#243;n condicional ASSIGNED &#8594; RUNNING</text></g><g class="message" data-participant-1="DB" data-participant-2="C"><polygon fill="#181818" points="1415.8906,1212.1978,1425.8906,1216.1978,1415.8906,1220.1978,1419.8906,1216.1978" style="stroke:#181818;stroke-width:1;"/><line style="stroke:#181818;stroke-width:1;stroke-dasharray:2,2;" x1="761.3599" x2="1421.8906" y1="1216.1978" y2="1216.1978"/><text fill="#000000" font-family="Arial" font-size="13" font-weight="bold" lengthAdjust="spacing" textLength="14.46" x="1002.6345" y="1211.4429">30</text><text fill="#000000" font-family="Arial" font-size="13" lengthAdjust="spacing" textLength="165.5215" x="1021.0945" y="1211.4429">aceptada o duplicado inocuo</text></g><path d="M1579,1229.1978 L1579,1283.1978 L1834,1283.1978 L1834,1239.1978 L1824,1229.1978 L1579,1229.1978" fill="#FEFFDD" style="stroke:#181818;stroke-width:0.5;"/><path d="M1824,1229.1978 L1824,1239.1978 L1834,1239.1978 L1824,1229.1978" fill="#FEFFDD" style="stroke:#181818;stroke-width:0.5;"/><text fill="#000000" font-family="Arial" font-size="13" lengthAdjust="spacing" textLength="143.0952" x="1586.7576" y="1246.3916">Pool acotado y reusable.</text><text fill="#000000" font-family="Arial" font-size="13" lengthAdjust="spacing" textLength="215.3188" x="1586.7576" y="1261.3403">Otros workers ejecutan otros intentos</text><text fill="#000000" font-family="Arial" font-size="13" lengthAdjust="spacing" textLength="230.5151" x="1586.7576" y="1276.2891">hasta el l&#237;mite configurado (baseline: 4).</text><g class="message" data-participant-1="W" data-participant-2="N"><polygon fill="#181818" points="1618.064,1305.9927,1608.064,1309.9927,1618.064,1313.9927,1614.064,1309.9927" style="stroke:#181818;stroke-width:1;"/><line style="stroke:#181818;stroke-width:1;stroke-dasharray:2,2;" x1="1612.064" x2="1806.1909" y1="1309.9927" y2="1309.9927"/><text fill="#000000" font-family="Arial" font-size="13" font-weight="bold" lengthAdjust="spacing" textLength="14.46" x="1671.158" y="1305.2378">31</text><text fill="#000000" font-family="Arial" font-size="13" lengthAdjust="spacing" textLength="53.479" x="1689.6179" y="1305.2378">resultado</text></g><g class="message" data-participant-1="N" data-participant-2="MQ"><line style="stroke:#181818;stroke-width:1;" x1="1274.4009" x2="1284.4009" y1="1338.9414" y2="1334.9414"/><line style="stroke:#181818;stroke-width:1;" x1="1274.4009" x2="1284.4009" y1="1338.9414" y2="1342.9414"/><line style="stroke:#181818;stroke-width:1;" x1="1273.4009" x2="1606.064" y1="1338.9414" y2="1338.9414"/><text fill="#000000" font-family="Arial" font-size="13" font-weight="bold" lengthAdjust="spacing" textLength="14.46" x="1321.8926" y="1334.1865">32</text><text fill="#000000" font-family="Arial" font-size="13" lengthAdjust="spacing" textLength="218.2197" x="1340.3525" y="1334.1865">AttemptSucceeded(attempt_id, result)</text></g><g class="message" data-participant-1="MQ" data-participant-2="C"><line style="stroke:#181818;stroke-width:1;" x1="1425.8906" x2="1415.8906" y1="1367.8901" y2="1363.8901"/><line style="stroke:#181818;stroke-width:1;" x1="1425.8906" x2="1415.8906" y1="1367.8901" y2="1371.8901"/><line style="stroke:#181818;stroke-width:1;" x1="1273.4009" x2="1426.8906" y1="1367.8901" y2="1367.8901"/><text fill="#000000" font-family="Arial" font-size="13" font-weight="bold" lengthAdjust="spacing" textLength="14.46" x="1285.4009" y="1363.1353">33</text><text fill="#000000" font-family="Arial" font-size="13" lengthAdjust="spacing" textLength="112.0298" x="1303.8608" y="1363.1353">hecho de ejecuci&#243;n</text></g><g class="message" data-participant-1="C" data-participant-2="DB"><polygon fill="#181818" points="772.3599,1392.8389,762.3599,1396.8389,772.3599,1400.8389,768.3599,1396.8389" style="stroke:#181818;stroke-width:1;"/><line style="stroke:#181818;stroke-width:1;" x1="766.3599" x2="1426.8906" y1="1396.8389" y2="1396.8389"/><text fill="#000000" font-family="Arial" font-size="13" font-weight="bold" lengthAdjust="spacing" textLength="14.46" x="985.6895" y="1392.084">34</text><text fill="#000000" font-family="Arial" font-size="13" lengthAdjust="spacing" textLength="199.4116" x="1004.1494" y="1392.084">finalizeIfCurrent(attempt_id, result)</text></g><g class="message" data-participant-1="DB" data-participant-2="C"><polygon fill="#181818" points="1415.8906,1421.7876,1425.8906,1425.7876,1415.8906,1429.7876,1419.8906,1425.7876" style="stroke:#181818;stroke-width:1;"/><line style="stroke:#181818;stroke-width:1;stroke-dasharray:2,2;" x1="761.3599" x2="1421.8906" y1="1425.7876" y2="1425.7876"/><text fill="#000000" font-family="Arial" font-size="13" font-weight="bold" lengthAdjust="spacing" textLength="14.46" x="958.9531" y="1421.0327">35</text><text fill="#000000" font-family="Arial" font-size="13" lengthAdjust="spacing" textLength="252.8843" x="977.4131" y="1421.0327">Task=SUCCEEDED + resultado autoritativo</text></g><path d="M1185,1438.7876 L1185,1492.7876 L1515,1492.7876 L1515,1448.7876 L1505,1438.7876 L1185,1438.7876" fill="#FEFFDD" style="stroke:#181818;stroke-width:0.5;"/><path d="M1505,1438.7876 L1505,1448.7876 L1515,1448.7876 L1505,1438.7876" fill="#FEFFDD" style="stroke:#181818;stroke-width:0.5;"/><text fill="#000000" font-family="Arial" font-size="13" lengthAdjust="spacing" textLength="240.6079" x="1191" y="1455.9814">Ack expl&#237;cito tras procesar cada mensaje.</text><text fill="#000000" font-family="Arial" font-size="13" lengthAdjust="spacing" textLength="204.3882" x="1191" y="1470.9302">Ack del broker &#8800; resultado terminal.</text><text fill="#000000" font-family="Arial" font-size="13" lengthAdjust="spacing" textLength="309.2959" x="1191" y="1485.8789">Hechos tard&#237;os/duplicados no sobrescriben el estado.</text><text fill="#000000" font-family="Arial" font-size="11" lengthAdjust="spacing" textLength="86.8237" x="876.2439" y="1522.9517">consulta posterior</text><g class="message" data-participant-1="UI" data-participant-2="API"><polygon fill="#181818" points="487.6392,1556.2314,497.6392,1560.2314,487.6392,1564.2314,491.6392,1560.2314" style="stroke:#181818;stroke-width:1;"/><line style="stroke:#181818;stroke-width:1;" x1="219.1104" x2="493.6392" y1="1560.2314" y2="1560.2314"/><text fill="#000000" font-family="Arial" font-size="13" font-weight="bold" lengthAdjust="spacing" textLength="14.46" x="256.958" y="1555.4766">36</text><text fill="#000000" font-family="Arial" font-size="13" lengthAdjust="spacing" textLength="186.3735" x="275.418" y="1555.4766">HTTP/JSON &#183; consultar(task_id)</text></g><g class="message" data-participant-1="API" data-participant-2="DB"><polygon fill="#181818" points="749.3599,1585.1802,759.3599,1589.1802,749.3599,1593.1802,753.3599,1589.1802" style="stroke:#181818;stroke-width:1;"/><line style="stroke:#181818;stroke-width:1;" x1="499.6392" x2="755.3599" y1="1589.1802" y2="1589.1802"/><text fill="#000000" font-family="Arial" font-size="13" font-weight="bold" lengthAdjust="spacing" textLength="14.46" x="560.9382" y="1584.4253">37</text><text fill="#000000" font-family="Arial" font-size="13" lengthAdjust="spacing" textLength="120.6626" x="579.3982" y="1584.4253">leer Task y resultado</text></g><g class="message" data-participant-1="DB" data-participant-2="API"><polygon fill="#181818" points="510.6392,1614.1289,500.6392,1618.1289,510.6392,1622.1289,506.6392,1618.1289" style="stroke:#181818;stroke-width:1;"/><line style="stroke:#181818;stroke-width:1;stroke-dasharray:2,2;" x1="504.6392" x2="760.3599" y1="1618.1289" y2="1618.1289"/><text fill="#000000" font-family="Arial" font-size="13" font-weight="bold" lengthAdjust="spacing" textLength="14.46" x="546.3101" y="1613.374">38</text><text fill="#000000" font-family="Arial" font-size="13" lengthAdjust="spacing" textLength="149.9189" x="564.77" y="1613.374">SUCCEEDED + resultado</text></g><g class="message" data-participant-1="API" data-participant-2="UI"><polygon fill="#181818" points="230.1104,1643.0776,220.1104,1647.0776,230.1104,1651.0776,226.1104,1647.0776" style="stroke:#181818;stroke-width:1;"/><line style="stroke:#181818;stroke-width:1;stroke-dasharray:2,2;" x1="224.1104" x2="498.6392" y1="1647.0776" y2="1647.0776"/><text fill="#000000" font-family="Arial" font-size="13" font-weight="bold" lengthAdjust="spacing" textLength="14.46" x="297.0276" y="1642.3228">39</text><text fill="#000000" font-family="Arial" font-size="13" lengthAdjust="spacing" textLength="106.2344" x="315.4875" y="1642.3228">estado y resultado</text></g><g class="message" data-participant-1="UI" data-participant-2="U"><polygon fill="#181818" points="43.1206,1672.0264,33.1206,1676.0264,43.1206,1680.0264,39.1206,1676.0264" style="stroke:#181818;stroke-width:1;"/><line style="stroke:#181818;stroke-width:1;stroke-dasharray:2,2;" x1="37.1206" x2="218.1104" y1="1676.0264" y2="1676.0264"/><text fill="#000000" font-family="Arial" font-size="13" font-weight="bold" lengthAdjust="spacing" textLength="14.46" x="65.8105" y="1671.2715">40</text><text fill="#000000" font-family="Arial" font-size="13" lengthAdjust="spacing" textLength="101.1499" x="84.2705" y="1671.2715">mostrar resultado</text></g><path d="M475,1689.0264 L475,1728.0264 L1629,1728.0264 L1629,1699.0264 L1619,1689.0264 L475,1689.0264" fill="#FEFFDD" style="stroke:#181818;stroke-width:0.5;"/><path d="M1619,1689.0264 L1619,1699.0264 L1629,1699.0264 L1619,1689.0264" fill="#FEFFDD" style="stroke:#181818;stroke-width:0.5;"/><text fill="#000000" font-family="Arial" font-size="13" lengthAdjust="spacing" textLength="317.2114" x="889.3669" y="1706.2202">C-07 observa m&#233;tricas/logs fuera del camino funcional.</text><text fill="#000000" font-family="Arial" font-size="13" lengthAdjust="spacing" textLength="314.9834" x="889.3669" y="1721.1689">IDs correlacionan Task &#8594; Attempt &#8594; Node &#8594; Worker.</text><!--SRC=[ZLRDRXit4BxlKn0vsOWizxz0YWHG92Tn4Q_iA8Ol0W9gToGpvf9Rakl4VO02lVO9UkqXXwA7tkitoPFq6r8hKR5Jz2JjpiVXp3VVp6nGGPCeRMsVQVjE_FEtc4qEllXoRaOLjK5MwlOl8su4lQMgImyrYSv84QGZMLmgF2wj3Glxlf1TiAPh5kGAVwLCAvriXB-KjNsdp4eifVQKMMfQoaw7PzQ4KZOaHav9dP-adpeo5PsGzt958wrMHbHa0lpBAbWd7fpxJZfb7mZfnNc1Oq5LgfKcY0VZb8LPTLgw13Y-W_WAYDFZQCLlKSiW5z9Jj7qtDwVMXvMZsTdB29aytNKmKRwLeReaDpVJZYc8i6c1kBlav9kvUIKN2nLEpgBjvEnE35_FpTXQLoi3ebAaupkWR-U6QoH6qLxksY-ik-8O55DZ4XiNnRauU8ASnIDHeL9kNJ2ym6iaY_SlNhy-FVnnDYsvxAsyqLRMug50IPlM1b1_y-QARWe6RyvSIwrgU4CPdAobe0okP8-TF0KK0EDb5LNpIBoM_chlzAYS79VFzt5B8gm0yc3ZlB9Dem974u1-e-hahyz3HadYqYs0_wwTnjGO2YHYCa4jLSMK2fOJV1iFjSd285PXhydnfGFKzALSUqxwTf2T8aTzD7Ndv4BJa76DyWrSQNbDmjX8hB38CsOtBCZKWjqNm-5GjCvMv6MZ48g5s465RJK24h0MqmrDcX1AOeE3N2hNCEX6j737XwadQGgqfzi_fUw3YcwUG5MmZ4xEJcCXkuL6ucuDBM0yOD0q4fpyRpfv3OxFMKoDTEmXjsvZoocS3g3ecUBUrg0HmNfscyuFu83mvAYFQLYCkGoDGbc0t4W7ntuGNXb1xz7P-kR0ekypFZa7f31Egbh8jrQGffLY2iQxJ78bG9v1jtXnA2hP8lvQrZs9x8DyO8fvNZaLP53NDhaPHuOrGRJMW03sSjzDgQEutxYsOAPMyOHkE9UvuI0UlpelI-YIQp8A0Pc6nwFPxFXvUJIPcuTWPQLySBQlvProP07VQGna9fFFz810YVlb4rb9Zvcvhjz6Jf-xY0MI7xX7OnjjzLMebLChnLoAD9y-BxV_BwzrjSlTUFRMgG-op0Tzulj5oTxBR4BLNQlZ0DXHGOHTi0PueuLj5Ncbg6i9UYuYgE-gTDSCo41rBiHFBEFTkQSsMVNI47tnnSTVVXDhSUH5temtcyMkZAqwctLSERWeJgtLWDkG1eMZpgSHDOMUl7WNzu7lKpGyel1wdQWlBYNq3raBVVi1igB4_GhbXhizNe1Q6NealjdFMl0Ynia4etDvaDQsgEc_IUkgYZ00whsyOkduVaxb9LMNF2AppuoCpoKserO_q_5ot3c75Evrbn4PkszsFXuV7Kr0zyDjnBijloNrv6mmBaRL5UPF2r8gXQv66Nq_n1qKXCAWkxry2vuPMeF0XRDWMdpyzVVi3YpXXaCU5YyuBy-RjxxzOFtXfgoUjuUt2nogd5gGuMgagVJ95kdNbcZnBKBurd5nVNnsZVTurxVB_ivEpaVajeuxI_XUudONyNf-vYwovTiWKWVAjiRTbLiM-A3vNjY59tSDKc__20wi-4DjLruiEy8-PN8hx4xGjEnCQg1XSJpnI10Qq3A-CYaLxgUrvE9_J2AAVzA7qPRHVm40]--></g></svg>
